<?xml version="1.0" encoding="utf-8"?>
<!-- Generator: Fusion 360, Shaper Origin Export Add-In, Version 1.4.1  -->
<svg enable-background="new 0 0 59.6 59.5995946" height="59.5995946cm" shaper:fusionaddin="version:1.4.1" version="1.1" viewBox="0 0 59.6 59.5995946" width="59.6cm" x="0cm" xml:space="preserve" xmlns="http://www.w3.org/2000/svg" xmlns:shaper="http://www.shapertools.com/namespaces/shaper" xmlns:xlink="http://www.w3.org/1999/xlink" y="0cm"><path d="M-54.1781609,4.8364958 L-55.4766943,5.3420608 A29.8,29.8 158.1503056 0,0 -54.969937,6.530602 L-53.7011935,5.9511863 -53.5308734,6.3241355 -54.7984269,6.9030077 A29.8,29.8 154.8775783 0,0 -54.2246436,8.0606804 L-52.9910475,7.4097786 -52.7997139,7.7723961 -54.032153,8.4226874 A29.8,29.8 151.604851 0,0 -53.3932154,9.5457154 L-52.1987904,8.8254506 -51.9870674,9.1765537 -53.1803722,9.896143 A29.8,29.8 148.3321238 0,0 -52.4783643,10.9808632 L-51.3270063,10.1935848 -51.0955846,10.5320283 -52.2458627,11.3185683 A29.8,29.8 145.0593965 0,0 -51.4830743,12.3614427 L-50.3785388,11.5097186 -50.1281732,11.8343985 -51.2316727,12.6853238 A29.8,29.8 141.7866692 0,0 -50.4105918,13.6829507 L-49.3564817,12.7695591 -49.0879888,13.0794164 -50.1411103,13.9919514 A29.8,29.8 138.5139419 0,0 -49.2644152,14.9410767 L-48.2641687,13.9689968 -47.9784243,14.2630209 -48.9777327,15.234189 A29.8,29.8 135.2412147 0,0 -48.048283,16.131717 L-47.1051626,15.1041196 -46.8030987,15.3813513 -47.7453345,16.4079849 A29.8,29.8 131.9684874 0,0 -46.7661619,17.2509879 L-45.8832439,16.1712248 -45.5658459,16.4307599 -46.4479357,17.5095103 A29.8,29.8 128.6957601 0,0 -45.4222339,18.2952386 L-44.6023983,17.1668317 -44.2707014,17.4078237 -45.089768,18.5351722 A29.8,29.8 125.4230329 0,0 -44.0208828,19.261063 L-43.2668036,18.087693 -42.9218897,18.3093558 -43.6752615,19.4816253 A29.8,29.8 122.1503056 0,0 -42.5666793,20.1453108 L-41.8808163,18.930805 -41.5238104,19.1324155 -42.2090301,20.3457822 A29.8,29.8 118.8775783 0,0 -41.0643668,20.9450977 L-40.4489571,19.6934175 -40.0810237,19.8743182 -40.6958562,21.1248244 A29.8,29.8 115.604851 0,0 -39.5188456,21.6578151 L-38.9758964,20.3730432 -38.5982357,20.5326439 -39.1406756,21.8162108 A29.8,29.8 112.3321238 0,0 -37.9351567,22.281138 L-37.4664392,20.9674652 -37.080283,21.1052454 -37.5485609,22.4176862 A29.8,29.8 109.0593965 0,0 -36.3184659,22.8130335 L-35.9255088,21.4747446 -35.5321167,21.590255 -35.9247052,22.9272887 A29.8,29.8 105.7866692 0,0 -34.6740465,23.2517666 L-34.3581316,21.8932269 -33.9587867,21.9860905 -34.2744053,23.3433561 A29.8,29.8 102.5139419 0,0 -33.0072622,23.5959062 L-32.76942,22.2215469 -32.3654249,22.291461 -32.6030441,23.6645313 A29.8,29.8 99.2412147 0,0 -31.3235498,23.8443298 L-31.164556,22.4586338 -30.7572285,22.5053703 -30.9160732,23.8897666 A29.8,29.8 95.9684874 0,0 -29.6284011,23.9962271 L-29.5487743,22.6037143 -29.139443,22.6271207 -29.2189951,24.0183275 A29.8,29.8 92.6957601 0,0 -27.9273454,24.0511027 L-27.9273454,22.6563151 -27.5173454,22.6563151 -27.5173454,24.0497945 A29.8,29.8 89.4230329 0,0 -26.2259311,24.0087775 L-26.3055579,22.6162647 -25.8962265,22.5928582 -25.8166745,23.984065 A29.8,29.8 86.1503056 0,0 -24.529708,23.8693896 L-24.6887018,22.4836936 -24.2813743,22.4369571 -24.1225296,23.8213535 A29.8,29.8 82.8775783 0,0 -22.8442087,23.6333937 L-23.0820509,22.2590344 -22.6780559,22.1891203 -22.4404367,23.5621906 A29.8,29.8 79.604851 0,0 -21.174931,23.3015596 L-21.4908459,21.9430198 -21.091501,21.8501561 -20.7758824,23.2074217 A29.8,29.8 76.3321238 0,0 -19.5273198,22.8749695 L-19.9202768,21.5366806 -19.5268847,21.4211702 -19.1342962,22.758204 A29.8,29.8 73.0593965 0,0 -17.9067491,22.355015 L-18.3754667,21.0413421 -17.9893105,20.9035619 -17.5210326,22.2160026 A29.8,29.8 69.7866692 0,0 -16.318505,21.743392 L-16.8614542,20.4586202 -16.4837935,20.2990194 -15.9413536,21.5825863 A29.8,29.8 66.5139419 0,0 -14.7677681,21.0420956 L-15.3831778,19.7904154 -15.0152444,19.6095147 -14.4004119,20.860021 A29.8,29.8 63.2412147 0,0 -13.2595963,20.2534132 L-13.9454593,19.0389073 -13.5884534,18.8372968 -12.9032337,20.0506636 A29.8,29.8 59.9684874 0,0 -11.7989092,19.3799173 L-12.5529884,18.2065473 -12.2080744,17.9848845 -11.4547025,19.157154 A29.8,29.8 56.6957601 0,0 -10.3904712,18.4244571 L-11.2103068,17.2960502 -10.8786098,17.0550582 -10.0595432,18.1824068 A29.8,29.8 53.4230329 0,0 -9.0388763,17.3901491 L-9.9217942,16.3103859 -9.6043961,16.0508508 -8.7223063,17.1296012 A29.8,29.8 50.1503056 0,0 -7.7485331,16.280367 L-8.6916534,15.2527696 -8.3895896,14.9755378 -7.4473538,16.0021715 A29.8,29.8 46.8775783 0,0 -6.5236504,15.0987306 L-7.523897,14.1266508 -7.2381526,13.8326267 -6.2388442,14.8037949 A29.8,29.8 43.604851 0,0 -5.3682236,13.8490944 L-6.4223338,12.9357027 -6.1538409,12.6258454 -5.1007194,13.5383804 A29.8,29.8 40.3321238 0,0 -4.2860215,12.5355342 L-5.3905569,11.6838101 -5.1401913,11.3591301 -4.0366918,12.2100554 A29.8,29.8 37.0593965 0,0 -3.2805739,11.1623346 L-4.4319319,10.3750562 -4.2005101,10.0366127 -3.050232,10.8231527 A29.8,29.8 33.7866692 0,0 -2.3551604,9.7339748 L-3.5495854,9.01371 -3.3378625,8.6626069 -2.1445577,9.3821961 A29.8,29.8 30.5139419 0,0 -1.5127995,8.2551137 L-2.7463956,7.6042119 -2.555062,7.2415944 -1.3226229,7.8918857 A29.8,29.8 27.2412147 0,0 -0.7562389,6.7305751 L-2.0249823,6.1511594 -1.8546622,5.7782103 -0.5871087,6.3570826 A29.8,29.8 23.9684874 0,0 -0.0879462,5.1653318 L-1.3876986,4.6592921 -1.2389474,4.2772278 0.0595859,4.7827929 A29.8,29.8 20.6957601 0,0 0.4898987,3.5644891 L-0.8366231,3.1334761 -0.7099262,2.7435429 0.6153515,3.1741517 A29.8,29.8 17.4230329 0,0 0.975411,1.9332688 L-0.3735535,1.5786882 -0.269324,1.182158 1.0783753,1.536406 A29.8,29.8 14.1503056 0,0 1.367007,0.2769915 L0,0 0.0814221,-0.4018339 1.447147,-0.1251021 A29.8,29.8 10.8775783 0,0 1.6634095,-1.3989403 L0.2828188,-1.5974393 0.3411679,-2.0032661 1.7204637,-1.8049533 A29.8,29.8 7.604851 0,0 1.8636516,-3.0890601 L0.4739805,-3.2084191 0.5090662,-3.6169151 1.897434,-3.4976681 A29.8,29.8 4.3321238 0,0 1.9670802,-4.7878551 L0.5728614,-4.8276847 0.5845694,-5.2375175 1.9774806,-5.1977253 A29.8,29.8 1.0593965 0,0 1.973358,-6.4897842 L0.5791392,-6.4499545 0.5674312,-6.8597873 1.9603423,-6.8995796 A29.8,29.8 357.7866692 0,0 1.8824644,-8.1892959 L0.4927932,-8.069937 0.4577075,-8.478433 1.8460752,-8.59768 A29.8,29.8 354.5139419 0,0 1.6946959,-9.880847 L0.3141052,-9.682348 0.2557562,-10.0881748 1.635052,-10.2864876 A29.8,29.8 351.2412147 0,0 1.4106651,-11.5589198 L0.043658,-11.2819282 -0.0377641,-11.6837621 1.3279608,-11.9604938 A29.8,29.8 347.9684874 0,0 1.0312982,-13.2180408 L-0.3176662,-12.8634603 -0.4218957,-13.2599905 0.9258035,-13.6142385 A29.8,29.8 344.6957601 0,0 0.5578329,-14.8527984 L-0.768689,-14.4217854 -0.895386,-14.8117185 0.4298917,-15.2423274 A29.8,29.8 341.4230329 0,0 -0.0081867,-16.4578604 L-1.3079391,-15.9518207 -1.4566903,-16.3338849 -0.1581569,-16.83945 A29.8,29.8 338.1503056 0,0 -0.6649142,-18.0279912 L-1.9336577,-17.4485755 -2.1039778,-17.8215246 -0.8364243,-18.4003969 A29.8,29.8 334.8775783 0,0 -1.4102076,-19.5580695 L-2.6438037,-18.9071677 -2.8351373,-19.2697852 -1.6026982,-19.9200765 A29.8,29.8 331.604851 0,0 -2.2416358,-21.0431046 L-3.4360608,-20.3228398 -3.6477838,-20.6739429 -2.454479,-21.3935321 A29.8,29.8 328.3321238 0,0 -3.1564869,-22.4782524 L-4.3078449,-21.690974 -4.5392666,-22.0294175 -3.3889885,-22.8159575 A29.8,29.8 325.0593965 0,0 -4.1517769,-23.8588319 L-5.2563124,-23.0071078 -5.506678,-23.3317877 -4.4031785,-24.182713 A29.8,29.8 321.7866692 0,0 -5.2242593,-25.1803399 L-6.2783695,-24.2669482 -6.5468624,-24.5768056 -5.4937409,-25.4893405 A29.8,29.8 318.5139419 0,0 -6.370436,-26.4384659 L-7.3706825,-25.466386 -7.6564269,-25.76041 -6.6571185,-26.7315782 A29.8,29.8 315.2412147 0,0 -7.5865682,-27.6291061 L-8.5296886,-26.6015087 -8.8317525,-26.8787404 -7.8895167,-27.9053741 A29.8,29.8 311.9684874 0,0 -8.8686893,-28.7483771 L-9.7516073,-27.6686139 -10.0690053,-27.928149 -9.1869155,-29.0068994 A29.8,29.8 308.6957601 0,0 -10.2126173,-29.7926278 L-11.0324529,-28.6642209 -11.3641498,-28.9052128 -10.5450832,-30.0325614 A29.8,29.8 305.4230329 0,0 -11.6139684,-30.7584522 L-12.3680476,-29.5850822 -12.7129615,-29.8067449 -11.9595896,-30.9790144 A29.8,29.8 302.1503056 0,0 -13.0681719,-31.6427 L-13.7540349,-30.4281941 -14.1110408,-30.6298046 -13.4258211,-31.8431714 A29.8,29.8 298.8775783 0,0 -14.5704844,-32.4424869 L-15.1858941,-31.1908067 -15.5538275,-31.3717073 -14.9389949,-32.6222136 A29.8,29.8 295.604851 0,0 -16.1160056,-33.1552042 L-16.6589548,-31.8704324 -17.0366155,-32.0300331 -16.4941756,-33.3136 A29.8,29.8 292.3321238 0,0 -17.6996945,-33.7785272 L-18.168412,-32.4648544 -18.5545682,-32.6026346 -18.0862903,-33.9150753 A29.8,29.8 289.0593965 0,0 -19.3163853,-34.3104227 L-19.7093423,-32.9721338 -20.1027345,-33.0876441 -19.7101459,-34.4246779 A29.8,29.8 285.7866692 0,0 -20.9608047,-34.7491558 L-21.2767196,-33.390616 -21.6760644,-33.4834797 -21.3604459,-34.8407453 A29.8,29.8 282.5139419 0,0 -22.627589,-35.0932954 L-22.8654312,-33.718936 -23.2694263,-33.7888501 -23.0318071,-35.1619204 A29.8,29.8 279.2412147 0,0 -24.3113014,-35.341719 L-24.4702952,-33.956023 -24.8776227,-34.0027594 -24.718778,-35.3871558 A29.8,29.8 275.9684874 0,0 -26.0064501,-35.4936163 L-26.0860769,-34.1011034 -26.4954082,-34.1245098 -26.4158561,-35.5157166 A29.8,29.8 272.6957601 0,0 -27.7075058,-35.5484919 L-27.7075058,-34.1537042 -28.1175058,-34.1537042 -28.1175058,-35.5471837 A29.8,29.8 269.4230329 0,0 -29.4089201,-35.5061667 L-29.3292933,-34.1136538 -29.7386246,-34.0902474 -29.8181767,-35.4814542 A29.8,29.8 266.1503056 0,0 -31.1051432,-35.3667788 L-30.9461494,-33.9810828 -31.3534769,-33.9343463 -31.5123216,-35.3187427 A29.8,29.8 262.8775783 0,0 -32.7906425,-35.1307829 L-32.5528003,-33.7564236 -32.9567953,-33.6865095 -33.1944145,-35.0595798 A29.8,29.8 259.604851 0,0 -34.4599202,-34.7989487 L-34.1440053,-33.440409 -34.5433502,-33.3475453 -34.8589688,-34.7048109 A29.8,29.8 256.3321238 0,0 -36.1075314,-34.3723587 L-35.7145743,-33.0340697 -36.1079665,-32.9185594 -36.500555,-34.2555931 A29.8,29.8 253.0593965 0,0 -37.7281021,-33.8524042 L-37.2593845,-32.5387313 -37.6455407,-32.400951 -38.1138186,-33.7133918 A29.8,29.8 249.7866692 0,0 -39.3163461,-33.2407812 L-38.773397,-31.9560093 -39.1510577,-31.7964086 -39.6934976,-33.0799754 A29.8,29.8 246.5139419 0,0 -40.8670831,-32.5394848 L-40.2516734,-31.2878045 -40.6196068,-31.1069039 -41.2344393,-32.3574101 A29.8,29.8 243.2412147 0,0 -42.3752548,-31.7508023 L-41.6893919,-30.5362965 -42.0463977,-30.334686 -42.7316175,-31.5480527 A29.8,29.8 239.9684874 0,0 -43.835942,-30.8773064 L-43.0818628,-29.7039364 -43.4267768,-29.4822737 -44.1801486,-30.6545432 A29.8,29.8 236.6957601 0,0 -45.24438,-29.9218462 L-44.4245444,-28.7934393 -44.7562414,-28.5524474 -45.575308,-29.6797959 A29.8,29.8 233.4230329 0,0 -46.5959749,-28.8875382 L-45.713057,-27.8077751 -46.030455,-27.54824 -46.9125449,-28.6269904 A29.8,29.8 230.1503056 0,0 -47.8863181,-27.7777561 L-46.9431977,-26.7501587 -47.2452616,-26.472927 -48.1874974,-27.4995606 A29.8,29.8 226.8775783 0,0 -49.1112008,-26.5961198 L-48.1109542,-25.6240399 -48.3966986,-25.3300159 -49.396007,-26.301184 A29.8,29.8 223.604851 0,0 -50.2666276,-25.3464835 L-49.2125174,-24.4330919 -49.4810103,-24.1232345 -50.5341318,-25.0357695 A29.8,29.8 220.3321238 0,0 -51.3488297,-24.0329233 L-50.2442943,-23.1811992 -50.4946599,-22.8565193 -51.5981594,-23.7074446 A29.8,29.8 217.0593965 0,0 -52.3542773,-22.6597238 L-51.2029193,-21.8724453 -51.434341,-21.5340019 -52.5846192,-22.3205419 A29.8,29.8 213.7866692 0,0 -53.2796908,-21.2313639 L-52.0852658,-20.5110992 -52.2969887,-20.1599961 -53.4902935,-20.8795853 A29.8,29.8 210.5139419 0,0 -54.1220517,-19.7525029 L-52.8884556,-19.1016011 -53.0797892,-18.7389836 -54.3122283,-19.3892749 A29.8,29.8 207.2412147 0,0 -54.8786123,-18.2279643 L-53.6098689,-17.6485486 -53.780189,-17.2755995 -55.0477425,-17.8544717 A29.8,29.8 203.9684874 0,0 -55.546905,-16.6627209 L-54.2471526,-16.1566812 -54.3959038,-15.774617 -55.6944371,-16.2801821 A29.8,29.8 200.6957601 0,0 -56.1247499,-15.0618783 L-54.798228,-14.6308652 -54.924925,-14.240932 -56.2502027,-14.6715409 A29.8,29.8 197.4230329 0,0 -56.6102622,-13.430658 L-55.2612977,-13.0760774 -55.3655272,-12.6795472 -56.7132265,-13.0337952 A29.8,29.8 194.1503056 0,0 -57.0018582,-11.7743807 L-55.6348512,-11.4973892 -55.7162733,-11.0955553 -57.0819982,-11.372287 A29.8,29.8 190.8775783 0,0 -57.2982607,-10.0984489 L-55.91767,-9.8999499 -55.9760191,-9.4941231 -57.3553149,-9.6924359 A29.8,29.8 187.604851 0,0 -57.4985028,-8.408329 L-56.1088316,-8.2889701 -56.1439174,-7.8804741 -57.5322852,-7.9997211 A29.8,29.8 184.3321238 0,0 -57.6019314,-6.7095341 L-56.2077126,-6.6697044 -56.2194206,-6.2598716 -57.6123318,-6.2996639 A29.8,29.8 181.0593965 0,0 -57.6082092,-5.007605 L-56.2139904,-5.0474346 -56.2022824,-4.6376018 -57.5951935,-4.5978096 A29.8,29.8 177.7866692 0,0 -57.5173156,-3.3080932 L-56.1276444,-3.4274522 -56.0925587,-3.0189562 -57.4809264,-2.8997092 A29.8,29.8 174.5139419 0,0 -57.3295471,-1.6165422 L-55.9489564,-1.8150412 -55.8906073,-1.4092144 -57.2699032,-1.2109016 A29.8,29.8 171.2412147 0,0 -57.0455162,0.0615306 L-55.6785092,-0.2154609 -55.5970871,0.1863729 -56.962812,0.4631047 A29.8,29.8 167.9684874 0,0 -56.6661494,1.7206517 L-55.317185,1.3660711 -55.2129554,1.7626013 -56.5606547,2.1168493 A29.8,29.8 164.6957601 0,0 -56.1926841,3.3554093 L-54.8661622,2.9243962 -54.7394652,3.3143294 -56.0647429,3.7449382 A29.8,29.8 161.4230329 0,0 -55.6266645,4.9604712 L-54.3269121,4.4544315 -54.1781609,4.8364958z" fill="rgb(0,0,0)" shaper:cutDepth="0.004" shaper:pathType="exterior" transform="matrix(1,0,0,-1,57.6174256,24.0511027)" vector-effect="non-scaling-stroke" /><path d="M-55.1174256,-5.7486946 a27.3,27.3 0 1,1 54.6,0 a27.3,27.3 0 1,1 -54.6,0z" fill="rgb(255,255,255)" shaper:cutDepth="0.004" shaper:pathType="interior" stroke="rgb(0,0,0)" stroke-width="2" transform="matrix(1,0,0,-1,57.6174256,24.0511027)" vector-effect="non-scaling-stroke" /></svg>