<?xml version="1.0" encoding="utf-8"?>
<!-- Generator: Fusion 360, Shaper Origin Export Add-In, Version 1.4.1  -->
<svg enable-background="new 0 0 15.903 1.2" height="1.2cm" shaper:fusionaddin="version:1.4.1" version="1.1" viewBox="0 0 15.903 1.2" width="15.903cm" x="0cm" xml:space="preserve" xmlns="http://www.w3.org/2000/svg" xmlns:shaper="http://www.shapertools.com/namespaces/shaper" xmlns:xlink="http://www.w3.org/1999/xlink" y="0cm"><path d="M15.303,0.4 L15.603,0.4 15.603,0.6 15.4865,0.6 15.4865,1 15.5,1 A0.2,0.2 0 0,1 15.1,1 L14.8195,1 14.8195,0.6 13.8195,0.6 13.8195,1 13.1525,1 13.1525,0.6 12.1525,0.6 12.1525,1 11.4855,1 11.4855,0.6 10.4855,0.6 10.4855,1 10.5,1 A0.2,0.2 0 0,1 10.1,1 L9.8185,1 9.8185,0.6 8.8185,0.6 8.8185,1 8.1515,1 8.1515,0.6 7.1515,0.6 7.1515,1 6.4845,1 6.4845,0.6 5.4845,0.6 5.4845,1 5.5,1 A0.2,0.2 0 0,1 5.1,1 L4.8175,1 4.8175,0.6 3.8175,0.6 3.8175,1 3.1505,1 3.1505,0.6 2.1505,0.6 2.1505,1 1.4835,1 1.4835,0.6 0.4835,0.6 0.4835,1 0.5,1 A0.2,0.2 0 0,1 0.1,1 L-0.3,1 -0.3,0.4 0,0.4 0,0 15.303,0 15.303,0.4z" fill="rgb(0,0,0)" shaper:cutDepth="0.003" shaper:pathType="exterior" transform="matrix(1,0,0,-1,0.3,1.2)" vector-effect="non-scaling-stroke" /></svg>