<?xml version="1.0" encoding="utf-8"?>
<!-- Generator: Fusion 360, Shaper Origin Export Add-In, Version 1.4.1  -->
<svg enable-background="new 0 0 16.203 1" height="1cm" shaper:fusionaddin="version:1.4.1" version="1.1" viewBox="0 0 16.203 1" width="16.203cm" x="0cm" xml:space="preserve" xmlns="http://www.w3.org/2000/svg" xmlns:shaper="http://www.shapertools.com/namespaces/shaper" xmlns:xlink="http://www.w3.org/1999/xlink" y="0cm"><path d="M-5.41,0.4 L-5.41,1 -5.803,1 -5.803,0 -5.4,0 A0.2,0.2 180 0,0 -5,-0 L-0.4,0 A0.2,0.2 180 0,0 0,-0 L4.6,0 A0.2,0.2 180 0,0 5,-0 L9.6,0 A0.2,0.2 180 0,0 10,0 L10.4,0 10.4,1 10.013,1 10.013,0.4 9.593,0.4 9.593,1 8.346,1 8.346,0.4 7.926,0.4 7.926,1 6.679,1 6.679,0.4 6.259,0.4 6.259,1 5.012,1 5.012,0.4 4.592,0.4 4.592,1 3.345,1 3.345,0.4 2.925,0.4 2.925,1 1.678,1 1.678,0.4 1.258,0.4 1.258,1 0.011,1 0.011,0.4 -0.409,0.4 -0.409,1 -1.656,1 -1.656,0.4 -2.076,0.4 -2.076,1 -3.323,1 -3.323,0.4 -3.743,0.4 -3.743,1 -4.99,1 -4.99,0.4 -5.41,0.4z" fill="rgb(0,0,0)" shaper:cutDepth="0.003" shaper:pathType="exterior" transform="matrix(1,0,0,-1,5.803,1)" vector-effect="non-scaling-stroke" /></svg>